<mxfile host="app.diagrams.net" modified="2021-09-26T21:52:17.917Z" agent="5.0 (Windows NT 10.0; WOW64) AppleWebKit/537.36 (KHTML, like Gecko) Chrome/92.0.4515.159 YaBrowser/21.8.3.607 Yowser/2.5 Safari/537.36" etag="ump0_zf6tM697cCsKZ_8" version="15.3.4" type="github">
  <diagram id="r_qnH1HllNbgKLjlJHCZ" name="Page-1">
    <mxGraphModel dx="990" dy="575" grid="1" gridSize="10" guides="1" tooltips="1" connect="1" arrows="1" fold="1" page="1" pageScale="1" pageWidth="827" pageHeight="1169" math="0" shadow="0">
      <root>
        <mxCell id="0" />
        <mxCell id="1" parent="0" />
        <mxCell id="lHqvFT1bvPYRfDelncX7-1" value="&lt;h1&gt;Действия&lt;/h1&gt;&lt;p&gt;Посетитель:&lt;/p&gt;&lt;p style=&quot;text-align: justify&quot;&gt;&lt;span&gt;1) п&lt;/span&gt;&lt;span&gt;росматривает экспонаты&lt;/span&gt;&lt;br&gt;&lt;span&gt;2) оценивает выставку&lt;/span&gt;&lt;br&gt;&lt;span&gt;3) узнаёт сведения о выставке&lt;/span&gt;&lt;br&gt;&lt;/p&gt;" style="text;html=1;strokeColor=none;fillColor=none;spacing=5;spacingTop=-20;whiteSpace=wrap;overflow=hidden;rounded=0;hachureGap=4;pointerEvents=0;" vertex="1" parent="1">
          <mxGeometry x="60" y="310" width="190" height="170" as="geometry" />
        </mxCell>
        <mxCell id="lHqvFT1bvPYRfDelncX7-2" value="Посетитель" style="shape=umlActor;verticalLabelPosition=bottom;verticalAlign=top;html=1;outlineConnect=0;hachureGap=4;pointerEvents=0;" vertex="1" parent="1">
          <mxGeometry x="50" y="160" width="30" height="60" as="geometry" />
        </mxCell>
        <mxCell id="lHqvFT1bvPYRfDelncX7-4" value="Заходит на сайт" style="rounded=0;whiteSpace=wrap;html=1;hachureGap=4;pointerEvents=0;strokeWidth=1;" vertex="1" parent="1">
          <mxGeometry x="115" y="170" width="80" height="40" as="geometry" />
        </mxCell>
        <mxCell id="lHqvFT1bvPYRfDelncX7-7" value="" style="endArrow=none;html=1;startSize=14;endSize=14;sourcePerimeterSpacing=8;" edge="1" parent="1" source="lHqvFT1bvPYRfDelncX7-2" target="lHqvFT1bvPYRfDelncX7-4">
          <mxGeometry width="50" height="50" relative="1" as="geometry">
            <mxPoint x="88" y="190" as="sourcePoint" />
            <mxPoint x="160" y="190" as="targetPoint" />
          </mxGeometry>
        </mxCell>
        <mxCell id="lHqvFT1bvPYRfDelncX7-8" value="Узнать сведения о выставке" style="rounded=0;whiteSpace=wrap;html=1;hachureGap=4;pointerEvents=0;strokeWidth=1;" vertex="1" parent="1">
          <mxGeometry x="240" y="170" width="100" height="40" as="geometry" />
        </mxCell>
        <mxCell id="lHqvFT1bvPYRfDelncX7-18" value="" style="endArrow=classic;html=1;shadow=0;sourcePerimeterSpacing=8;targetPerimeterSpacing=8;exitX=1;exitY=0.5;exitDx=0;exitDy=0;entryX=0;entryY=0.5;entryDx=0;entryDy=0;" edge="1" parent="1" source="lHqvFT1bvPYRfDelncX7-4" target="lHqvFT1bvPYRfDelncX7-8">
          <mxGeometry width="50" height="50" relative="1" as="geometry">
            <mxPoint x="410" y="300" as="sourcePoint" />
            <mxPoint x="460" y="250" as="targetPoint" />
          </mxGeometry>
        </mxCell>
        <mxCell id="lHqvFT1bvPYRfDelncX7-20" value="" style="rhombus;whiteSpace=wrap;html=1;hachureGap=4;pointerEvents=0;strokeWidth=1;" vertex="1" parent="1">
          <mxGeometry x="384" y="160" width="60" height="60" as="geometry" />
        </mxCell>
        <mxCell id="lHqvFT1bvPYRfDelncX7-22" value="" style="endArrow=classic;html=1;shadow=0;sourcePerimeterSpacing=8;targetPerimeterSpacing=8;exitX=1;exitY=0.5;exitDx=0;exitDy=0;entryX=0;entryY=0.5;entryDx=0;entryDy=0;" edge="1" parent="1" source="lHqvFT1bvPYRfDelncX7-8" target="lHqvFT1bvPYRfDelncX7-20">
          <mxGeometry width="50" height="50" relative="1" as="geometry">
            <mxPoint x="410" y="300" as="sourcePoint" />
            <mxPoint x="460" y="250" as="targetPoint" />
          </mxGeometry>
        </mxCell>
        <mxCell id="lHqvFT1bvPYRfDelncX7-24" value="" style="endArrow=classic;html=1;shadow=0;sourcePerimeterSpacing=8;targetPerimeterSpacing=8;exitX=0.5;exitY=0;exitDx=0;exitDy=0;rounded=0;" edge="1" parent="1" source="lHqvFT1bvPYRfDelncX7-20">
          <mxGeometry relative="1" as="geometry">
            <mxPoint x="380" y="280" as="sourcePoint" />
            <mxPoint x="490" y="90" as="targetPoint" />
            <Array as="points">
              <mxPoint x="414" y="90" />
            </Array>
          </mxGeometry>
        </mxCell>
        <mxCell id="lHqvFT1bvPYRfDelncX7-25" value="Label" style="edgeLabel;resizable=0;html=1;align=center;verticalAlign=middle;" connectable="0" vertex="1" parent="lHqvFT1bvPYRfDelncX7-24">
          <mxGeometry relative="1" as="geometry" />
        </mxCell>
      </root>
    </mxGraphModel>
  </diagram>
</mxfile>
